<?xml version="1.0"?>
<svg xmlns="http://www.w3.org/2000/svg" xmlns:xlink="http://www.w3.org/1999/xlink" xmlns:svgjs="http://svgjs.com/svgjs" version="1.1" width="512" height="512" x="0" y="0" viewBox="0 0 512 512" style="enable-background:new 0 0 512 512" xml:space="preserve" class=""><g><path xmlns="http://www.w3.org/2000/svg" d="m498.24 220.44v71.12l-52.07 5.08a195.243 195.243 0 0 1 -27.3 64.76l33.65 40.64-50.16 50.17-40.64-33.66a189.868 189.868 0 0 1 -64.76 27.31l-5.08 52.7h-71.12l-5.08-52.7a195.4 195.4 0 0 1 -64.77-27.31l-40.64 33.66-50.16-50.17 33.66-40.64a189.785 189.785 0 0 1 -27.31-64.76l-52.7-5.08v-71.12l52.7-5.08a195.263 195.263 0 0 1 27.31-64.76l-33.66-40.64 50.16-50.17 40.64 33.66a189.919 189.919 0 0 1 64.77-27.31l5.08-52.7h71.12l5.08 52.7a195.263 195.263 0 0 1 64.76 27.31l40.64-33.66 49.53 50.17-33.66 40.64a189.785 189.785 0 0 1 27.31 64.76zm-94.56 35.56a147.68 147.68 0 1 0 -147.68 147.68 147.682 147.682 0 0 0 147.68-147.68z" fill="#00adb5" data-original="#fedb41" style="" class=""/><path xmlns="http://www.w3.org/2000/svg" d="m256 108.32a147.68 147.68 0 1 1 -147.68 147.68 147.682 147.682 0 0 1 147.68-147.68zm83.2 147.2a32.628 32.628 0 0 0 0-46.14l-34.22-34.22a32.622 32.622 0 0 0 -46.15 0l-33.07 33.07a16.314 16.314 0 0 0 0 23.07l14.31 14.3-.23.23-72.6 72.6-3.99 27.97 36.01-2.62 2.47-23.9 23.98-2.56-1.85-19.57 9.68-9.69 18.41 2.07 15.71-16.48.23-.23 15.17 15.17a16.314 16.314 0 0 0 23.07 0z" fill="#eeeeee" data-original="#00acea" style="" class=""/><path xmlns="http://www.w3.org/2000/svg" d="m339.2 209.38a32.628 32.628 0 0 1 0 46.14l-33.07 33.07a16.314 16.314 0 0 1 -23.07 0l-15.17-15.17-27.82-27.82-14.31-14.3a16.314 16.314 0 0 1 0-23.07l33.07-33.07a32.622 32.622 0 0 1 46.15 0zm-23.46 31.91a10.87 10.87 0 0 0 0-15.38l-27.3-27.3a10.888 10.888 0 0 0 -15.38 0l-7.5 7.5 42.68 42.68z" fill="#fedb41" data-original="#00efd1" style="" class=""/><path xmlns="http://www.w3.org/2000/svg" d="m315.74 225.91a10.87 10.87 0 0 1 0 15.38l-7.5 7.5-42.68-42.68 7.5-7.5a10.888 10.888 0 0 1 15.38 0z" fill="#eeeeee" data-original="#00acea" style="" class=""/><path xmlns="http://www.w3.org/2000/svg" d="m267.89 273.42-.23.23-15.71 16.48-18.41-2.07-9.68 9.69 1.85 19.57-23.98 2.56-2.47 23.9-36.01 2.62 3.99-27.97 72.6-72.6.23-.23z" fill="#00adb5" data-original="#fedb41" style="" class=""/><g xmlns="http://www.w3.org/2000/svg" fill="#083863"><path d="m256 102.32c-84.739 0-153.68 68.94-153.68 153.68s68.941 153.68 153.68 153.68 153.68-68.94 153.68-153.68-68.941-153.68-153.68-153.68zm0 295.36c-78.122 0-141.68-63.557-141.68-141.68s63.558-141.68 141.68-141.68 141.68 63.557 141.68 141.68-63.558 141.68-141.68 141.68z" fill="#222831" data-original="#083863" style="" class=""/><path d="m498.7 214.468-48.33-4.665a196.727 196.727 0 0 0 -24.732-58.772l30.862-37.244a6 6 0 0 0 -.344-8.042l-49.526-50.17a6 6 0 0 0 -8.095-.406l-37.292 30.885a201.639 201.639 0 0 0 -58.727-24.8l-4.664-48.612a6.2 6.2 0 0 0 -5.972-5.642h-71.12a6.2 6.2 0 0 0 -5.973 5.644l-4.664 48.5a197.065 197.065 0 0 0 -58.781 24.817l-37.242-30.82a6 6 0 0 0 -8.071.393l-50.162 50.177a6.007 6.007 0 0 0 -.378 8.073l30.884 37.29a201.637 201.637 0 0 0 -24.8 58.728l-48.273 4.665a5.9 5.9 0 0 0 -5.3 5.973v71.12a5.9 5.9 0 0 0 5.3 5.972l48.33 4.665a196.727 196.727 0 0 0 24.732 58.772l-30.862 37.244a6 6 0 0 0 .371 8.069l50.155 50.17a6 6 0 0 0 8.069.379l37.289-30.885a201.787 201.787 0 0 0 58.736 24.8l4.663 48.612a6.2 6.2 0 0 0 5.977 5.642h71.12a6.2 6.2 0 0 0 5.973-5.644l4.664-48.5a197.014 197.014 0 0 0 58.771-24.817l37.245 30.821a6 6 0 0 0 8.071-.393l50.159-50.177a6.005 6.005 0 0 0 .378-8.072l-30.874-37.291a201.618 201.618 0 0 0 24.788-58.733l47.648-4.661a5.9 5.9 0 0 0 5.3-5.972v-71.121a5.9 5.9 0 0 0 -5.303-5.972zm-6.7 71.649-46.533 4.551a5.931 5.931 0 0 0 -5.221 4.7 189.683 189.683 0 0 1 -26.446 62.778 6 6 0 0 0 .435 7.081l30.174 36.433-42.433 42.44-36.431-30.175a6 6 0 0 0 -7.154-.371 184.328 184.328 0 0 1 -62.7 26.446 6.257 6.257 0 0 0 -4.7 5.508l-4.56 47.492h-60.222l-4.557-47.5a6.126 6.126 0 0 0 -4.7-5.4 190.077 190.077 0 0 1 -62.786-26.543 6 6 0 0 0 -7.079.393l-36.434 30.162-42.434-42.45 30.172-36.432a6 6 0 0 0 .37-7.157 184.247 184.247 0 0 1 -26.437-62.7 5.865 5.865 0 0 0 -5.168-4.7l-47.156-4.562v-60.222l47.156-4.557a5.93 5.93 0 0 0 5.228-4.7 189.693 189.693 0 0 1 26.457-62.774 6 6 0 0 0 -.435-7.081l-30.184-36.438 42.431-42.439 36.432 30.175a6 6 0 0 0 7.154.371 184.371 184.371 0 0 1 62.71-26.446 6.258 6.258 0 0 0 4.7-5.508l4.56-47.492h60.222l4.556 47.5a6.128 6.128 0 0 0 4.7 5.4 189.877 189.877 0 0 1 62.775 26.543 6 6 0 0 0 7.081-.393l36.41-30.15 41.854 42.4-30.2 36.464a6 6 0 0 0 -.37 7.157 184.247 184.247 0 0 1 26.437 62.7 5.865 5.865 0 0 0 5.168 4.7l47.158 4.568z" fill="#222831" data-original="#083863" style="" class=""/><path d="m309.223 170.917a38.624 38.624 0 0 0 -54.635 0l-33.07 33.07a22.312 22.312 0 0 0 0 31.557l10.062 10.06-68.58 68.584a5.984 5.984 0 0 0 -1.7 3.4l-3.99 27.97a6 6 0 0 0 5.939 6.847c.145 0 .29 0 .436-.016l36.009-2.62a6 6 0 0 0 5.533-5.367l1.973-19.072 19.148-2.044a6 6 0 0 0 5.337-6.531l-1.585-16.761 5.642-5.649 15.538 1.747a6 6 0 0 0 5.013-1.822l11.693-12.27 10.831 10.83a22.34 22.34 0 0 0 31.555 0l33.07-33.07a38.625 38.625 0 0 0 0-54.626zm-59.561 112.918-15.452-1.735a6 6 0 0 0 -4.915 1.722l-9.68 9.69a6 6 0 0 0 -1.728 4.8l1.292 13.669-18.085 1.931a6 6 0 0 0 -5.331 5.349l-1.954 18.9-23.568 1.714 2.656-18.617 67.169-67.17 19.434 19.429zm85.3-32.558-33.07 33.07a10.324 10.324 0 0 1 -14.586 0l-42.989-42.99-14.317-14.3a10.314 10.314 0 0 1 0-14.584l33.074-33.073a26.624 26.624 0 0 1 37.664 0l34.22 34.22a26.656 26.656 0 0 1 0 37.657z" fill="#222831" data-original="#083863" style="" class=""/><path d="m292.683 194.367a16.918 16.918 0 0 0 -23.861 0l-7.5 7.5a6 6 0 0 0 0 8.486l42.678 42.68a6 6 0 0 0 8.484 0l7.5-7.495a16.871 16.871 0 0 0 0-23.871zm18.815 42.68-3.258 3.258-34.195-34.195 3.252-3.253a4.9 4.9 0 0 1 6.906 0l27.3 27.3a4.869 4.869 0 0 1 0 6.894z" fill="#222831" data-original="#083863" style="" class=""/></g></g></svg>
