<?xml version="1.0"?>
<svg xmlns="http://www.w3.org/2000/svg" xmlns:xlink="http://www.w3.org/1999/xlink" xmlns:svgjs="http://svgjs.com/svgjs" version="1.1" width="512" height="512" x="0" y="0" viewBox="0 0 478 478.4001" style="enable-background:new 0 0 512 512" xml:space="preserve" class=""><g><path xmlns="http://www.w3.org/2000/svg" d="m146.582031 228.699219c0 13.253906-10.746093 24-24 24-13.253906 0-24-10.746094-24-24 0-13.253907 10.746094-24 24-24 13.253907 0 24 10.746093 24 24zm0 0" fill="#b9b9b9" data-original="#00acea" style=""/><path xmlns="http://www.w3.org/2000/svg" d="m296.582031 228.699219c0 13.253906-10.746093 24-24 24-13.253906 0-24-10.746094-24-24 0-13.253907 10.746094-24 24-24 13.253907 0 24 10.746093 24 24zm0 0" fill="#b9b9b9" data-original="#00acea" style=""/><path xmlns="http://www.w3.org/2000/svg" d="m272.582031 204.699219c-13.253906 0-24 10.746093-24 24 0 13.253906 10.746094 24 24 24 13.253907 0 24-10.746094 24-24-.003906-13.253907-10.746093-23.996094-24-24zm-150-80.898438h236l26.199219 301.097657c.96875 11.179687-2.800781 22.253906-10.386719 30.523437-7.585937 8.269531-18.292969 12.980469-29.511719 12.976563h-294.703124c-11.214844.015624-21.921876-4.691407-29.496094-12.96875-7.570313-8.277344-11.3125-19.355469-10.300782-30.53125l26.199219-301.097657zm0 80.898438c-13.253906 0-24 10.746093-24 24 0 13.253906 10.746094 24 24 24 13.253907 0 24-10.746094 24-24-.003906-13.253907-10.746093-23.996094-24-24zm0 0" fill="#e84545" data-original="#00efd1" style="" class=""/><g xmlns="http://www.w3.org/2000/svg" fill="#083863"><path d="m228.882812 311.898438c-1.871093-1.871094-4.40625-2.921876-7.050781-2.921876s-5.183593 1.050782-7.050781 2.921876l-17.398438 17.300781-17-17c-3.894531-3.894531-10.207031-3.894531-14.101562 0s-3.894531 10.207031 0 14.101562l17 17-17 17c-1.871094 1.867188-2.925781 4.402344-2.925781 7.050781 0 2.644532 1.054687 5.179688 2.925781 7.046876 1.875 1.890624 4.4375 2.9375 7.101562 2.902343 2.652344-.011719 5.195313-1.050781 7.097657-2.902343l17-17 17 17c1.875 1.890624 4.4375 2.9375 7.101562 2.902343 2.652344-.011719 5.195313-1.050781 7.097657-2.902343 1.875-1.867188 2.925781-4.402344 2.925781-7.046876 0-2.648437-1.050781-5.183593-2.925781-7.050781l-17-17 17.402343-17.402343c3.742188-3.945313 3.652344-10.160157-.199219-14zm0 0" fill="#222831" data-original="#083863" style="" class=""/><path d="m394.78125 424.101562-26.199219-301.203124c-.4375-5.179688-4.800781-9.148438-10-9.097657h-76v-28.800781c-.03125-46.929688-38.070312-84.96875-85-85-46.941406.0078125-84.992187 38.058594-85 85v28.800781h-76c-5.175781.019531-9.496093 3.949219-10 9.097657l-26.199219 301.203124c-1.191406 13.964844 3.527344 27.792969 13.015626 38.117188 9.484374 10.320312 22.863281 16.191406 36.882812 16.179688h294.699219c14.015625.03125 27.398437-5.839844 36.871093-16.167969 9.476563-10.332031 14.167969-24.167969 12.929688-38.128907zm-262.199219-339.101562c0-35.898438 29.101563-65 65-65 35.898438 0 65 29.101562 65 65v28.800781h-130zm234.5 363.699219c-5.65625 6.226562-13.691406 9.753906-22.101562 9.699219h-294.800781c-8.410157.003906-16.433594-3.523438-22.121094-9.71875-5.683594-6.199219-8.507813-14.5-7.777344-22.878907l25.398438-292h66.902343v62.398438c-16.082031 4.949219-26.125 20.914062-23.621093 37.554687 2.5 16.636719 16.796874 28.941406 33.621093 28.941406s31.117188-12.304687 33.621094-28.941406c2.503906-16.640625-7.542969-32.605468-23.621094-37.554687v-62.5h130v62.5c-16.082031 4.949219-26.125 20.914062-23.621093 37.554687 2.5 16.636719 16.796874 28.941406 33.621093 28.941406s31.117188-12.304687 33.621094-28.941406c2.503906-16.640625-7.542969-32.605468-23.621094-37.554687v-62.5h66.800781l25.398438 292c.820312 8.414062-1.980469 16.777343-7.699219 23zm-246-233.898438c.996094.132813 2.003907.132813 3 0 7.394531.796875 12.878907 7.242188 12.480469 14.667969-.402344 7.429688-6.542969 13.25-13.980469 13.25-7.441406 0-13.582031-5.820312-13.980469-13.25-.398437-7.425781 5.082032-13.871094 12.480469-14.667969zm150 0c.996094.132813 2.003907.132813 3 0 7.394531.796875 12.878907 7.242188 12.480469 14.667969-.402344 7.429688-6.542969 13.25-13.980469 13.25-7.441406 0-13.582031-5.820312-13.980469-13.25-.398437-7.425781 5.082032-13.871094 12.480469-14.667969zm0 0" fill="#222831" data-original="#083863" style="" class=""/></g></g></svg>
