<?xml version="1.0"?>
<svg xmlns="http://www.w3.org/2000/svg" xmlns:xlink="http://www.w3.org/1999/xlink" xmlns:svgjs="http://svgjs.com/svgjs" version="1.1" width="512" height="512" x="0" y="0" viewBox="0 0 512 512" style="enable-background:new 0 0 512 512" xml:space="preserve" class=""><g><path xmlns="http://www.w3.org/2000/svg" d="m166.1 155.54h66.49l-7.84 9.71 23.35 19.3v21.11l-22.31 17.8.84 35.07v.5h-33.05a25.129 25.129 0 0 0 -25.13 25.13v72.05a50.27 50.27 0 0 0 50.27 50.28h74.56a50.27 50.27 0 0 0 50.27-50.28v-72.05a25.129 25.129 0 0 0 -25.13-25.13h-31.17v-103.49h125.55l30.76 267.4c4.05 35.13-25.02 65.81-62.35 65.81h-250.42c-37.33 0-66.39-30.68-62.35-65.81l30.76-267.4z" fill="#00adb5" data-original="#00acea" style="" class=""/><path xmlns="http://www.w3.org/2000/svg" d="m343.55 284.16v72.05a50.27 50.27 0 0 1 -50.27 50.28h-74.56a50.27 50.27 0 0 1 -50.27-50.28v-72.05a25.129 25.129 0 0 1 25.13-25.13h124.84a25.129 25.129 0 0 1 25.13 25.13zm-41.05 62v-16.34h-93v16.34a16.755 16.755 0 0 0 16.76 16.76h59.48a16.755 16.755 0 0 0 16.76-16.76z" fill="#eeeeee" data-original="#00efd1" style="" class=""/><path xmlns="http://www.w3.org/2000/svg" d="m302.5 329.82v16.34a16.755 16.755 0 0 1 -16.76 16.76h-59.48a16.755 16.755 0 0 1 -16.76-16.76v-16.34z" fill="#00adb5" data-original="#00acea" style="" class=""/><path xmlns="http://www.w3.org/2000/svg" d="m287.25 258.53v.5h-60.62v-.5l-.84-35.07 22.31-17.8v-21.11l-23.35-19.3 7.84-9.71 15.51-19.21-23.35-28.73 36.38-42.09 26.12 34.82v55.21z" fill="#fedb41" data-original="#fedb41" style="" class=""/><g xmlns="http://www.w3.org/2000/svg" fill="#083863"><path d="m418.761 155.084a5.8 5.8 0 0 0 -5.961-5.084h-55.8v-38.99a90.643 90.643 0 0 0 -28.633-66.285 100.449 100.449 0 0 0 -69.747-27.475c-54.42 0-98.62 42.061-98.62 93.76v38.99h-60.8a5.8 5.8 0 0 0 -5.961 5.084l-30.76 267.286a62.827 62.827 0 0 0 15.9 49.468 70.165 70.165 0 0 0 52.411 23.162h250.42a70.225 70.225 0 0 0 52.427-23.229 62.537 62.537 0 0 0 15.884-49.339zm-246.761-44.074c0-45.082 38.939-81.76 86.74-81.76a88.15 88.15 0 0 1 61.33 24.168 78.776 78.776 0 0 1 24.93 57.592v38.99h-52v-49.67a5.891 5.891 0 0 0 -1.075-3.6l-26.058-34.82a5.952 5.952 0 0 0 -9.292-.323l-36.375 42.089a6 6 0 0 0 -.113 7.708l20.286 25.189-10.65 13.427h-57.723zm146.42 153.99c10.548 0 19.58 8.612 19.58 19.16v72.05c0 24.416-20.31 43.79-44.72 43.79h-74.56c-24.41 0-44.72-19.374-44.72-43.79v-72.05c0-10.548 9.032-19.16 19.58-19.16zm-85.92-12-.641-26.722 19.933-15.935a5.94 5.94 0 0 0 2.208-4.683v-21.11a5.955 5.955 0 0 0 -2.128-4.625l-18.752-15.525 19.635-24.3a6 6 0 0 0 0-7.554l-20.175-24.827 28.1-32.652 20.32 27.263v150.67zm192.179 210.786a58.217 58.217 0 0 1 -43.469 19.214h-250.42a58.208 58.208 0 0 1 -43.457-19.2 50.46 50.46 0 0 1 -12.933-39.882l30.15-261.918h55.45v33.47a6 6 0 1 0 12 0v-33.47h48.039c-2.014 2-1.676 6.026.839 8.1l21.122 17.275v15.4l-20 16a5.947 5.947 0 0 0 -2.231 4.818l.731 29.407h-26.92c-17.165 0-31.58 14-31.58 31.16v72.05c0 31.033 25.692 55.79 56.72 55.79h74.56c31.028 0 56.72-24.757 56.72-55.79v-72.05c0-17.16-14.415-31.16-31.58-31.16h-25.42v-91h52v33.47a6 6 0 1 0 12 0v-33.47h50.45l30.15 261.92a50.434 50.434 0 0 1 -12.921 39.866z" fill="#222831" data-original="#083863" style="" class=""/><path d="m226.26 369h59.48c12.55 0 22.26-10.29 22.26-22.84v-16.34c0-3.313-2.187-5.82-5.5-5.82h-93c-3.313 0-6.5 2.507-6.5 5.82v16.34c0 12.55 10.71 22.84 23.26 22.84zm-11.26-33h81v10.16c0 5.933-4.327 10.84-10.26 10.84h-59.48c-5.933 0-11.26-4.907-11.26-10.84z" fill="#222831" data-original="#083863" style="" class=""/></g></g></svg>
