<svg width="18" height="26" viewBox="0 0 18 26" fill="none" xmlns="http://www.w3.org/2000/svg">
<g clip-path="url(#clip0)">
<path d="M12.4118 13L17.529 7.91832C18.157 7.29473 18.157 6.28367 17.529 5.65957L16.3918 4.5302C15.7638 3.9066 14.7457 3.9066 14.1172 4.5302L9 9.61188L3.88278 4.5302C3.25483 3.9066 2.2367 3.9066 1.60824 4.5302L0.470966 5.65957C-0.156989 6.28316 -0.156989 7.29422 0.470966 7.91832L5.58818 13L0.470966 18.0817C-0.156989 18.7053 -0.156989 19.7163 0.470966 20.3404L1.60824 21.4698C2.23619 22.0934 3.25483 22.0934 3.88278 21.4698L9 16.3881L14.1172 21.4698C14.7452 22.0934 15.7638 22.0934 16.3918 21.4698L17.529 20.3404C18.157 19.7168 18.157 18.7058 17.529 18.0817L12.4118 13Z" fill="#E84545"/>
</g>
<defs>
<clipPath id="clip0">
<rect width="18" height="26" fill="white"/>
</clipPath>
</defs>
</svg>
